<?xml version="1.0" encoding="UTF-8"?>
<!DOCTYPE svg PUBLIC "-//W3C//DTD SVG 1.1//EN" "http://www.w3.org/Graphics/SVG/1.1/DTD/svg11.dtd">
<svg xmlns="http://www.w3.org/2000/svg" version="1.1" width="837px" height="597px" style="shape-rendering:geometricPrecision; text-rendering:geometricPrecision; image-rendering:optimizeQuality; fill-rule:evenodd; clip-rule:evenodd" xmlns:xlink="http://www.w3.org/1999/xlink">
<g><path style="opacity:1" fill="#fefefe" d="M -0.5,-0.5 C 278.5,-0.5 557.5,-0.5 836.5,-0.5C 836.5,198.5 836.5,397.5 836.5,596.5C 571.5,596.5 306.5,596.5 41.5,596.5C 39.989,585.824 33.8223,580.157 23,579.5C 12.7251,580.608 6.89175,586.275 5.5,596.5C 3.5,596.5 1.5,596.5 -0.5,596.5C -0.5,397.5 -0.5,198.5 -0.5,-0.5 Z"/></g>
<g><path style="opacity:1" fill="#b4c9f2" d="M 374.5,49.5 C 444.332,48.3345 514.332,48.1679 584.5,49C 596.584,52.0443 607.584,57.211 617.5,64.5C 622.123,70.6299 624.457,77.6299 624.5,85.5C 623.799,89.8079 623.466,94.1412 623.5,98.5C 588.071,99.1635 552.571,99.4968 517,99.5C 481.494,99.4999 446.327,98.8332 411.5,97.5C 414.879,89.3913 415.379,81.058 413,72.5C 411.694,69.3793 409.86,66.7126 407.5,64.5C 402.456,56.4599 395.122,51.6266 385.5,50C 381.848,49.5014 378.182,49.3347 374.5,49.5 Z"/></g>
<g><path style="opacity:1" fill="#7891c4" d="M 374.5,49.5 C 378.182,49.3347 381.848,49.5014 385.5,50C 395.122,51.6266 402.456,56.4599 407.5,64.5C 393.163,64.3334 378.829,64.5001 364.5,65C 361,65.8333 358.833,68 358,71.5C 357.5,82.1615 357.333,92.8281 357.5,103.5C 357.5,136.5 357.5,169.5 357.5,202.5C 345.303,205.899 333.303,209.899 321.5,214.5C 302.803,173.628 304.637,133.628 327,94.5C 334.913,79.5838 345.413,66.7504 358.5,56C 363.525,52.9845 368.858,50.8178 374.5,49.5 Z"/></g>
<g><path style="opacity:1" fill="#5873a7" d="M 407.5,64.5 C 409.86,66.7126 411.694,69.3793 413,72.5C 415.379,81.058 414.879,89.3913 411.5,97.5C 395.069,99.2983 378.402,100.132 361.5,100C 360.051,101.102 358.718,102.269 357.5,103.5C 357.333,92.8281 357.5,82.1615 358,71.5C 358.833,68 361,65.8333 364.5,65C 378.829,64.5001 393.163,64.3334 407.5,64.5 Z"/></g>
<g><path style="opacity:1" fill="#5a74a8" d="M 617.5,64.5 C 623.776,63.4679 628.109,65.8012 630.5,71.5C 630.666,81.8387 630.5,92.172 630,102.5C 628.252,100.372 626.085,99.0388 623.5,98.5C 623.466,94.1412 623.799,89.8079 624.5,85.5C 624.457,77.6299 622.123,70.6299 617.5,64.5 Z"/></g>
<g><path style="opacity:1" fill="#95acda" d="M 630.5,71.5 C 631.494,81.9869 631.828,92.6536 631.5,103.5C 630.667,158.999 630.167,214.665 630,270.5C 629.5,271.667 628.667,272.5 627.5,273C 620.842,273.5 614.175,273.666 607.5,273.5C 603.179,267.538 598.845,261.538 594.5,255.5C 602.5,255.5 610.5,255.5 618.5,255.5C 618.823,241.588 618.49,227.754 617.5,214C 603.504,213.5 589.504,213.333 575.5,213.5C 575.5,218.167 575.5,222.833 575.5,227.5C 570.645,220.312 565.645,213.146 560.5,206C 563.036,205.814 565.369,205.314 567.5,204.5C 567.5,190.5 567.5,176.5 567.5,162.5C 553.5,162.5 539.5,162.5 525.5,162.5C 525.5,176.5 525.5,190.5 525.5,204.5C 536.326,205.33 547.326,205.83 558.5,206C 559.986,208.475 561.319,210.975 562.5,213.5C 550.167,213.5 537.833,213.5 525.5,213.5C 525.5,222.833 525.5,232.167 525.5,241.5C 522.421,242.304 519.421,243.304 516.5,244.5C 516.5,234.167 516.5,223.833 516.5,213.5C 502.5,213.5 488.5,213.5 474.5,213.5C 474.5,227.5 474.5,241.5 474.5,255.5C 486.833,255.5 499.167,255.5 511.5,255.5C 511.366,257.292 511.699,258.958 512.5,260.5C 512.372,264.881 512.705,269.215 513.5,273.5C 470.663,273.168 427.997,273.501 385.5,274.5C 382.928,268.784 380.928,262.784 379.5,256.5C 391.678,256.828 403.678,256.495 415.5,255.5C 415.5,241.5 415.5,227.5 415.5,213.5C 401.5,213.5 387.5,213.5 373.5,213.5C 373.5,221.833 373.5,230.167 373.5,238.5C 369.204,228.122 365.371,217.455 362,206.5C 361.208,204.356 359.708,203.023 357.5,202.5C 357.5,169.5 357.5,136.5 357.5,103.5C 358.718,102.269 360.051,101.102 361.5,100C 378.402,100.132 395.069,99.2983 411.5,97.5C 446.327,98.8332 481.494,99.4999 517,99.5C 552.571,99.4968 588.071,99.1635 623.5,98.5C 626.085,99.0388 628.252,100.372 630,102.5C 630.5,92.172 630.666,81.8387 630.5,71.5 Z"/></g>
<g><path style="opacity:1" fill="#d9eafd" d="M 227.5,102.5 C 234.004,102.138 235.671,104.638 232.5,110C 225.745,110.756 224.078,108.256 227.5,102.5 Z"/></g>
<g><path style="opacity:1" fill="#7490c7" d="M 631.5,103.5 C 633.167,104.5 634.5,105.833 635.5,107.5C 634.667,162.665 634.167,217.998 634,273.5C 630.64,276.447 626.806,278.113 622.5,278.5C 617.657,276.961 612.657,276.294 607.5,276.5C 607.5,275.5 607.5,274.5 607.5,273.5C 614.175,273.666 620.842,273.5 627.5,273C 628.667,272.5 629.5,271.667 630,270.5C 630.167,214.665 630.667,158.999 631.5,103.5 Z"/></g>
<g><path style="opacity:1" fill="#5b76aa" d="M 635.5,107.5 C 636.117,107.611 636.617,107.944 637,108.5C 637.667,163.833 637.667,219.167 637,274.5C 635.841,277.493 633.675,279.16 630.5,279.5C 627.794,279.425 625.127,279.092 622.5,278.5C 626.806,278.113 630.64,276.447 634,273.5C 634.167,217.998 634.667,162.665 635.5,107.5 Z"/></g>
<g><path style="opacity:1" fill="#bee2fc" d="M 375.5,112.5 C 387.993,111.34 400.66,111.173 413.5,112C 407.319,118.348 400.986,124.515 394.5,130.5C 388.146,124.478 381.813,118.478 375.5,112.5 Z"/></g>
<g><path style="opacity:1" fill="#bde1fb" d="M 425.5,112.5 C 438.327,111.34 451.327,111.173 464.5,112C 458.29,118.545 451.79,124.711 445,130.5C 438.341,124.675 431.841,118.675 425.5,112.5 Z"/></g>
<g><path style="opacity:1" fill="#bee2fc" d="M 476.5,112.5 C 488.993,111.34 501.66,111.173 514.5,112C 508.319,118.348 501.986,124.515 495.5,130.5C 489.146,124.478 482.813,118.478 476.5,112.5 Z"/></g>
<g><path style="opacity:1" fill="#bee1fc" d="M 527.5,112.5 C 539.993,111.34 552.66,111.173 565.5,112C 559,118.5 552.5,125 546,131.5C 540.356,124.689 534.19,118.356 527.5,112.5 Z"/></g>
<g><path style="opacity:1" fill="#bee2fc" d="M 577.5,112.5 C 590.327,111.34 603.327,111.173 616.5,112C 609.333,117.833 602.833,124.333 597,131.5C 590.631,124.964 584.131,118.631 577.5,112.5 Z"/></g>
<g><path style="opacity:1" fill="#885c37" d="M 750.5,171.5 C 745.998,175.751 740.665,178.418 734.5,179.5C 729.547,180.329 724.547,180.663 719.5,180.5C 715.654,180.455 711.987,179.622 708.5,178C 706.963,176.89 706.297,175.39 706.5,173.5C 706.334,169.486 706.501,165.486 707,161.5C 710.967,151.901 711.3,142.234 708,132.5C 706.811,130.767 705.644,129.1 704.5,127.5C 703.494,119.615 707.161,114.782 715.5,113C 736.009,110.01 749.176,118.51 755,138.5C 756.655,150.011 755.155,161.011 750.5,171.5 Z"/></g>
<g><path style="opacity:1" fill="#bee2fc" d="M 373.5,114.5 C 379.965,120.464 386.298,126.631 392.5,133C 386.333,139.167 380.167,145.333 374,151.5C 373.5,139.171 373.333,126.838 373.5,114.5 Z"/></g>
<g><path style="opacity:1" fill="#bee1fc" d="M 465.5,114.5 C 466.66,126.993 466.827,139.66 466,152.5C 459.652,146.319 453.485,139.986 447.5,133.5C 453.549,127.12 459.549,120.787 465.5,114.5 Z"/></g>
<g><path style="opacity:1" fill="#bee2fc" d="M 566.5,114.5 C 567.825,126.673 567.825,139.006 566.5,151.5C 560.833,145.167 554.833,139.167 548.5,133.5C 554.522,127.146 560.522,120.813 566.5,114.5 Z"/></g>
<g><path style="opacity:1" fill="#bee2fc" d="M 414.5,114.5 C 415.66,126.66 415.827,138.993 415,151.5C 408.833,145.333 402.667,139.167 396.5,133C 402.703,126.965 408.703,120.798 414.5,114.5 Z"/></g>
<g><path style="opacity:1" fill="#bcdffa" d="M 423.5,114.5 C 424.239,114.369 424.906,114.536 425.5,115C 430.983,121.317 436.649,127.483 442.5,133.5C 436.833,139.833 430.833,145.833 424.5,151.5C 423.501,139.185 423.168,126.851 423.5,114.5 Z"/></g>
<g><path style="opacity:1" fill="#bee2fc" d="M 474.5,114.5 C 480.965,120.464 487.298,126.631 493.5,133C 487.333,139.167 481.167,145.333 475,151.5C 474.5,139.171 474.333,126.838 474.5,114.5 Z"/></g>
<g><path style="opacity:1" fill="#bcdffa" d="M 516.5,113.5 C 517.66,126.327 517.827,139.327 517,152.5C 510.5,146 504,139.5 497.5,133C 504.036,126.631 510.369,120.131 516.5,113.5 Z"/></g>
<g><path style="opacity:1" fill="#bbdefa" d="M 524.5,114.5 C 531.618,119.784 537.952,125.951 543.5,133C 537.711,139.79 531.545,146.29 525,152.5C 524.5,139.838 524.333,127.171 524.5,114.5 Z"/></g>
<g><path style="opacity:1" fill="#bde1fc" d="M 575.5,114.5 C 581.965,120.464 588.298,126.631 594.5,133C 588.373,138.961 582.373,145.128 576.5,151.5C 575.501,139.185 575.168,126.851 575.5,114.5 Z"/></g>
<g><path style="opacity:1" fill="#bce0fb" d="M 617.5,113.5 C 618.66,126.327 618.827,139.327 618,152.5C 611.5,146 605,139.5 598.5,133C 605.036,126.631 611.369,120.131 617.5,113.5 Z"/></g>
<g><path style="opacity:1" fill="#f8c8c4" d="M 704.5,127.5 C 705.644,129.1 706.811,130.767 708,132.5C 711.3,142.234 710.967,151.901 707,161.5C 706.501,165.486 706.334,169.486 706.5,173.5C 702.938,167.125 700.938,160.125 700.5,152.5C 701.296,144.058 702.629,135.724 704.5,127.5 Z"/></g>
<g><path style="opacity:1" fill="#bde1fc" d="M 444.5,135.5 C 450.813,141.478 457.146,147.478 463.5,153.5C 451.18,154.666 438.847,154.833 426.5,154C 432.703,147.965 438.703,141.798 444.5,135.5 Z"/></g>
<g><path style="opacity:1" fill="#bce0fb" d="M 545.5,135.5 C 552.577,141.071 559.244,147.238 565.5,154C 552.833,154.667 540.167,154.667 527.5,154C 533.703,147.965 539.703,141.798 545.5,135.5 Z"/></g>
<g><path style="opacity:1" fill="#bde0fb" d="M 595.5,135.5 C 602.577,141.071 609.244,147.238 615.5,154C 602.833,154.667 590.167,154.667 577.5,154C 583.703,147.965 589.703,141.798 595.5,135.5 Z"/></g>
<g><path style="opacity:1" fill="#bde1fb" d="M 393.5,135.5 C 400.577,141.071 407.244,147.238 413.5,154C 400.833,154.667 388.167,154.667 375.5,154C 381.703,147.965 387.703,141.798 393.5,135.5 Z"/></g>
<g><path style="opacity:1" fill="#bde1fb" d="M 494.5,135.5 C 501.577,141.071 508.244,147.238 514.5,154C 501.833,154.667 489.167,154.667 476.5,154C 482.703,147.965 488.703,141.798 494.5,135.5 Z"/></g>
<g><path style="opacity:1" fill="#bee2fc" d="M 375.5,163.5 C 387.993,162.34 400.66,162.173 413.5,163C 407.319,169.348 400.986,175.515 394.5,181.5C 388.146,175.478 381.813,169.478 375.5,163.5 Z"/></g>
<g><path style="opacity:1" fill="#bee2fc" d="M 426.5,163.5 C 438.66,162.34 450.993,162.173 463.5,163C 457.318,169.014 451.318,175.181 445.5,181.5C 439.173,175.506 432.839,169.506 426.5,163.5 Z"/></g>
<g><path style="opacity:1" fill="#bee2fc" d="M 476.5,163.5 C 488.993,162.34 501.66,162.173 514.5,163C 508.319,169.348 501.986,175.515 495.5,181.5C 489.146,175.478 482.813,169.478 476.5,163.5 Z"/></g>
<g><path style="opacity:1" fill="#2679f8" d="M 567.5,204.5 C 564.813,204.664 562.146,204.497 559.5,204C 556.789,200.078 553.955,196.244 551,192.5C 552.2,196.718 554.366,200.551 557.5,204C 546.839,204.5 536.172,204.667 525.5,204.5C 525.5,190.5 525.5,176.5 525.5,162.5C 539.5,162.5 553.5,162.5 567.5,162.5C 567.5,176.5 567.5,190.5 567.5,204.5 Z"/></g>
<g><path style="opacity:1" fill="#fdfdfe" d="M 576.5,162.5 C 590.412,162.177 604.246,162.51 618,163.5C 618.823,177.408 618.656,191.242 617.5,205C 603.592,205.823 589.758,205.656 576,204.5C 575.186,190.425 575.352,176.425 576.5,162.5 Z"/></g>
<g><path style="opacity:1" fill="#bee2fc" d="M 373.5,165.5 C 379.965,171.464 386.298,177.631 392.5,184C 386.333,190.167 380.167,196.333 374,202.5C 373.5,190.171 373.333,177.838 373.5,165.5 Z"/></g>
<g><path style="opacity:1" fill="#bee2fc" d="M 414.5,165.5 C 415.66,177.66 415.827,189.993 415,202.5C 408.833,196.333 402.667,190.167 396.5,184C 402.703,177.965 408.703,171.798 414.5,165.5 Z"/></g>
<g><path style="opacity:1" fill="#bde1fc" d="M 465.5,164.5 C 466.825,177.006 466.825,189.673 465.5,202.5C 459.5,196.167 453.5,189.833 447.5,183.5C 453.522,177.146 459.522,170.813 465.5,164.5 Z"/></g>
<g><path style="opacity:1" fill="#bee2fc" d="M 474.5,165.5 C 480.965,171.464 487.298,177.631 493.5,184C 487.333,190.167 481.167,196.333 475,202.5C 474.5,190.171 474.333,177.838 474.5,165.5 Z"/></g>
<g><path style="opacity:1" fill="#bbdefa" d="M 423.5,164.5 C 430.341,170.508 436.675,177.008 442.5,184C 436.358,189.976 430.358,196.142 424.5,202.5C 423.501,189.851 423.168,177.184 423.5,164.5 Z"/></g>
<g><path style="opacity:1" fill="#bcdffa" d="M 516.5,164.5 C 517.66,177.327 517.827,190.327 517,203.5C 510.5,197 504,190.5 497.5,184C 504.036,177.631 510.369,171.131 516.5,164.5 Z"/></g>
<g><path style="opacity:1" fill="#8dbdfb" d="M 750.5,171.5 C 758.984,171.649 763.651,175.982 764.5,184.5C 760.468,207.079 757.468,230.079 755.5,253.5C 759.064,271.42 763.731,289.087 769.5,306.5C 766.978,310.888 763.978,314.888 760.5,318.5C 758.596,318.738 757.262,319.738 756.5,321.5C 742.857,327.936 728.524,331.936 713.5,333.5C 711.447,333.598 709.78,332.931 708.5,331.5C 709.742,313.109 711.409,294.776 713.5,276.5C 711.625,263.255 710.458,249.921 710,236.5C 707.353,251.42 704.187,266.087 700.5,280.5C 679.906,285.086 659.239,289.419 638.5,293.5C 637.702,293.043 637.369,292.376 637.5,291.5C 637.747,288.061 637.414,284.728 636.5,281.5C 636.62,280.414 637.287,279.747 638.5,279.5C 654.12,274.793 669.62,269.793 685,264.5C 686.567,243.864 689.9,223.531 695,203.5C 701.374,194.573 709.541,187.906 719.5,183.5C 724.922,183.353 729.922,182.02 734.5,179.5C 740.665,178.418 745.998,175.751 750.5,171.5 Z"/></g>
<g><path style="opacity:1" fill="#f0b2b0" d="M 734.5,179.5 C 729.922,182.02 724.922,183.353 719.5,183.5C 719.5,182.5 719.5,181.5 719.5,180.5C 724.547,180.663 729.547,180.329 734.5,179.5 Z"/></g>
<g><path style="opacity:1" fill="#6c9bdb" d="M 764.5,184.5 C 763.478,205.906 761.645,227.24 759,248.5C 758.303,250.584 757.136,252.251 755.5,253.5C 757.468,230.079 760.468,207.079 764.5,184.5 Z"/></g>
<g><path style="opacity:1" fill="#bbdffa" d="M 443.5,186.5 C 444.552,186.351 445.552,186.517 446.5,187C 452.348,192.681 458.015,198.515 463.5,204.5C 451.167,205.833 438.833,205.833 426.5,204.5C 432.188,198.48 437.855,192.48 443.5,186.5 Z"/></g>
<g><path style="opacity:1" fill="#bde0fb" d="M 494.5,186.5 C 501.577,192.071 508.244,198.238 514.5,205C 501.833,205.667 489.167,205.667 476.5,205C 482.703,198.965 488.703,192.798 494.5,186.5 Z"/></g>
<g><path style="opacity:1" fill="#bde0fb" d="M 393.5,186.5 C 400.577,192.071 407.244,198.238 413.5,205C 400.833,205.667 388.167,205.667 375.5,205C 381.703,198.965 387.703,192.798 393.5,186.5 Z"/></g>
<g><path style="opacity:1" fill="#402724" d="M 196.5,211.5 C 192.565,212.483 188.565,213.15 184.5,213.5C 178.35,212.782 172.35,211.449 166.5,209.5C 167.592,214.508 167.592,219.508 166.5,224.5C 164.742,225.128 163.242,226.128 162,227.5C 161.821,231.025 161.321,234.359 160.5,237.5C 154.535,232.296 151.869,225.629 152.5,217.5C 153.025,196.108 163.692,188.608 184.5,195C 188.708,198.066 193.208,200.566 198,202.5C 198.932,205.823 198.432,208.823 196.5,211.5 Z"/></g>
<g><path style="opacity:1" fill="#d4d6e5" d="M 357.5,202.5 C 359.708,203.023 361.208,204.356 362,206.5C 365.371,217.455 369.204,228.122 373.5,238.5C 374.758,243.942 376.425,249.276 378.5,254.5C 390.815,255.499 403.149,255.832 415.5,255.5C 403.678,256.495 391.678,256.828 379.5,256.5C 380.928,262.784 382.928,268.784 385.5,274.5C 385.263,275.791 385.596,276.791 386.5,277.5C 428.82,279.495 471.487,280.161 514.5,279.5C 514.5,279.833 514.5,280.167 514.5,280.5C 471.828,280.167 429.161,280.5 386.5,281.5C 384.718,284.501 382.051,286.334 378.5,287C 365.135,291.399 351.802,295.899 338.5,300.5C 336.617,300.124 335.117,299.124 334,297.5C 331.631,291.016 329.131,284.683 326.5,278.5C 325.265,271.62 322.765,265.286 319,259.5C 318.498,256.487 317.998,253.487 317.5,250.5C 314.207,241.453 311.207,232.286 308.5,223C 308.615,221.105 309.282,219.438 310.5,218C 314.154,216.726 317.82,215.56 321.5,214.5C 333.303,209.899 345.303,205.899 357.5,202.5 Z"/></g>
<g><path style="opacity:1" fill="#2a68d1" d="M 567.5,204.5 C 565.369,205.314 563.036,205.814 560.5,206C 565.645,213.146 570.645,220.312 575.5,227.5C 581.833,236.833 588.167,246.167 594.5,255.5C 598.845,261.538 603.179,267.538 607.5,273.5C 607.5,274.5 607.5,275.5 607.5,276.5C 606.041,276.433 604.708,276.766 603.5,277.5C 602.488,276.128 601.488,274.795 600.5,273.5C 596.736,266.962 592.736,260.628 588.5,254.5C 584.511,247.861 580.511,241.194 576.5,234.5C 573.734,229.955 570.734,225.622 567.5,221.5C 566.331,218.489 564.664,215.822 562.5,213.5C 561.319,210.975 559.986,208.475 558.5,206C 547.326,205.83 536.326,205.33 525.5,204.5C 536.172,204.667 546.839,204.5 557.5,204C 554.366,200.551 552.2,196.718 551,192.5C 553.955,196.244 556.789,200.078 559.5,204C 562.146,204.497 564.813,204.664 567.5,204.5 Z"/></g>
<g><path style="opacity:1" fill="#f9d2d0" d="M 196.5,211.5 C 199.305,224.201 199.139,236.867 196,249.5C 195.003,251.323 193.836,252.99 192.5,254.5C 190.824,256.834 188.491,257.834 185.5,257.5C 185.666,262.511 185.499,267.511 185,272.5C 184.275,273.059 183.442,273.392 182.5,273.5C 175.65,269.827 169.483,265.16 164,259.5C 163.227,257.648 163.727,256.314 165.5,255.5C 166.044,259.748 168.544,262.414 173,263.5C 175.631,262.037 177.798,260.037 179.5,257.5C 174.489,254.077 169.989,250.077 166,245.5C 165.502,248.482 165.335,251.482 165.5,254.5C 165.167,254.5 164.833,254.5 164.5,254.5C 164.666,250.486 164.499,246.486 164,242.5C 163.003,240.677 161.836,239.01 160.5,237.5C 161.321,234.359 161.821,231.025 162,227.5C 163.242,226.128 164.742,225.128 166.5,224.5C 167.592,219.508 167.592,214.508 166.5,209.5C 172.35,211.449 178.35,212.782 184.5,213.5C 188.565,213.15 192.565,212.483 196.5,211.5 Z"/></g>
<g><path style="opacity:1" fill="#3e70c1" d="M 354.5,208.5 C 355.822,208.33 356.989,208.663 358,209.5C 365.932,232.463 373.765,255.463 381.5,278.5C 367.355,284.217 353.021,289.55 338.5,294.5C 329.783,271.352 321.45,248.018 313.5,224.5C 313.709,223.914 314.043,223.414 314.5,223C 328.046,218.432 341.38,213.599 354.5,208.5 Z"/></g>
<g><path style="opacity:1" fill="#fefefe" d="M 415.5,255.5 C 403.149,255.832 390.815,255.499 378.5,254.5C 376.425,249.276 374.758,243.942 373.5,238.5C 373.5,230.167 373.5,221.833 373.5,213.5C 387.5,213.5 401.5,213.5 415.5,213.5C 415.5,227.5 415.5,241.5 415.5,255.5 Z"/></g>
<g><path style="opacity:1" fill="#fdfefe" d="M 424.5,213.5 C 438.5,213.5 452.5,213.5 466.5,213.5C 466.5,227.5 466.5,241.5 466.5,255.5C 452.167,255.5 437.833,255.5 423.5,255.5C 423.185,241.421 423.518,227.421 424.5,213.5 Z"/></g>
<g><path style="opacity:1" fill="#fefefe" d="M 516.5,244.5 C 513.485,247.532 511.818,251.199 511.5,255.5C 499.167,255.5 486.833,255.5 474.5,255.5C 474.5,241.5 474.5,227.5 474.5,213.5C 488.5,213.5 502.5,213.5 516.5,213.5C 516.5,223.833 516.5,234.167 516.5,244.5 Z"/></g>
<g><path style="opacity:1" fill="#fefefe" d="M 562.5,213.5 C 564.664,215.822 566.331,218.489 567.5,221.5C 567.5,232.833 567.5,244.167 567.5,255.5C 565.167,255.5 562.833,255.5 560.5,255.5C 560.617,249.896 558.284,245.729 553.5,243C 544.222,240.839 534.889,240.339 525.5,241.5C 525.5,232.167 525.5,222.833 525.5,213.5C 537.833,213.5 550.167,213.5 562.5,213.5 Z"/></g>
<g><path style="opacity:1" fill="#fdfefe" d="M 594.5,255.5 C 588.167,246.167 581.833,236.833 575.5,227.5C 575.5,222.833 575.5,218.167 575.5,213.5C 589.504,213.333 603.504,213.5 617.5,214C 618.49,227.754 618.823,241.588 618.5,255.5C 610.5,255.5 602.5,255.5 594.5,255.5 Z"/></g>
<g><path style="opacity:1" fill="#94abda" d="M 567.5,221.5 C 570.734,225.622 573.734,229.955 576.5,234.5C 575.509,241.313 575.175,248.313 575.5,255.5C 580.032,255.818 584.366,255.485 588.5,254.5C 592.736,260.628 596.736,266.962 600.5,273.5C 586.99,273.829 573.656,273.496 560.5,272.5C 560.5,266.833 560.5,261.167 560.5,255.5C 562.833,255.5 565.167,255.5 567.5,255.5C 567.5,244.167 567.5,232.833 567.5,221.5 Z"/></g>
<g><path style="opacity:1" fill="#f9fbfd" d="M 576.5,234.5 C 580.511,241.194 584.511,247.861 588.5,254.5C 584.366,255.485 580.032,255.818 575.5,255.5C 575.175,248.313 575.509,241.313 576.5,234.5 Z"/></g>
<g><path style="opacity:1" fill="#442623" d="M 560.5,255.5 C 560.5,261.167 560.5,266.833 560.5,272.5C 559.629,275.003 558.963,277.67 558.5,280.5C 558.167,280.5 557.833,280.5 557.5,280.5C 556.674,276.018 556.174,271.351 556,266.5C 554.062,265.14 552.396,265.473 551,267.5C 549.456,264.829 548.29,261.996 547.5,259C 540.332,260.526 532.998,261.36 525.5,261.5C 521.132,261.399 516.799,261.065 512.5,260.5C 511.699,258.958 511.366,257.292 511.5,255.5C 511.818,251.199 513.485,247.532 516.5,244.5C 519.421,243.304 522.421,242.304 525.5,241.5C 534.889,240.339 544.222,240.839 553.5,243C 558.284,245.729 560.617,249.896 560.5,255.5 Z"/></g>
<g><path style="opacity:1" fill="#6999da" d="M 708.5,331.5 C 706.297,331.396 704.297,330.73 702.5,329.5C 696.83,326.329 693.83,321.495 693.5,315C 695.77,303.483 698.103,291.983 700.5,280.5C 704.187,266.087 707.353,251.42 710,236.5C 710.458,249.921 711.625,263.255 713.5,276.5C 711.409,294.776 709.742,313.109 708.5,331.5 Z"/></g>
<g><path style="opacity:1" fill="#f5d1d0" d="M 317.5,250.5 C 317.998,253.487 318.498,256.487 319,259.5C 322.765,265.286 325.265,271.62 326.5,278.5C 323.933,278.855 321.433,279.521 319,280.5C 317.587,282.413 315.754,283.746 313.5,284.5C 310.253,278.624 309.92,272.624 312.5,266.5C 313.75,266.423 314.583,265.756 315,264.5C 314.886,259.394 315.72,254.727 317.5,250.5 Z"/></g>
<g><path style="opacity:1" fill="#9cb8fc" d="M 60.5,254.5 C 64.6914,253.869 66.5248,255.535 66,259.5C 60.4385,261.77 58.6052,260.103 60.5,254.5 Z"/></g>
<g><path style="opacity:1" fill="#4c7ff8" d="M 164.5,254.5 C 164.833,254.5 165.167,254.5 165.5,254.5C 165.5,254.833 165.5,255.167 165.5,255.5C 163.727,256.314 163.227,257.648 164,259.5C 169.483,265.16 175.65,269.827 182.5,273.5C 183.442,273.392 184.275,273.059 185,272.5C 185.499,267.511 185.666,262.511 185.5,257.5C 188.491,257.834 190.824,256.834 192.5,254.5C 195.271,254.421 197.937,254.921 200.5,256C 217.697,266.015 235.531,274.849 254,282.5C 273.538,277.241 293.038,271.908 312.5,266.5C 309.92,272.624 310.253,278.624 313.5,284.5C 294.521,291.987 275.521,299.487 256.5,307C 253.167,307.667 249.833,307.667 246.5,307C 233.284,300.892 219.95,295.058 206.5,289.5C 194.511,319.154 183.344,349.154 173,379.5C 169.676,381.579 166.176,383.246 162.5,384.5C 142.365,387.216 124.032,382.549 107.5,370.5C 106.833,369.833 106.167,369.167 105.5,368.5C 106.496,368.586 107.329,368.252 108,367.5C 113,355.167 118,342.833 123,330.5C 124.748,322.374 125.914,314.374 126.5,306.5C 124.581,307.612 122.914,308.946 121.5,310.5C 112.604,315.383 103.937,320.716 95.5,326.5C 87.3333,344.833 79.1667,363.167 71,381.5C 69.6439,382.38 68.1439,382.714 66.5,382.5C 61.257,382.377 56.9237,380.377 53.5,376.5C 52.645,375.469 51.9783,374.303 51.5,373C 60.9066,350.095 71.0733,327.595 82,305.5C 99.1052,292.695 115.939,279.529 132.5,266C 142.908,261.289 153.575,257.455 164.5,254.5 Z"/></g>
<g><path style="opacity:1" fill="#f9beba" d="M 165.5,255.5 C 165.5,255.167 165.5,254.833 165.5,254.5C 165.335,251.482 165.502,248.482 166,245.5C 169.989,250.077 174.489,254.077 179.5,257.5C 177.798,260.037 175.631,262.037 173,263.5C 168.544,262.414 166.044,259.748 165.5,255.5 Z"/></g>
<g><path style="opacity:1" fill="#f9d1ce" d="M 557.5,280.5 C 554.863,287.777 551.196,294.444 546.5,300.5C 546.055,303.365 546.722,305.865 548.5,308C 547.36,309.973 546.027,311.807 544.5,313.5C 545.127,314.417 545.461,315.417 545.5,316.5C 538.281,323.506 531.615,323.173 525.5,315.5C 525.318,313.325 524.651,311.325 523.5,309.5C 524.814,308.014 525.814,306.347 526.5,304.5C 526.547,302.962 525.88,301.962 524.5,301.5C 519.83,295.158 516.496,288.158 514.5,280.5C 514.5,280.167 514.5,279.833 514.5,279.5C 514.672,278.508 514.338,277.842 513.5,277.5C 513.5,276.167 513.5,274.833 513.5,273.5C 512.705,269.215 512.372,264.881 512.5,260.5C 516.799,261.065 521.132,261.399 525.5,261.5C 532.998,261.36 540.332,260.526 547.5,259C 548.29,261.996 549.456,264.829 551,267.5C 552.396,265.473 554.062,265.14 556,266.5C 556.174,271.351 556.674,276.018 557.5,280.5 Z"/></g>
<g><path style="opacity:1" fill="#718ec6" d="M 513.5,273.5 C 513.5,274.833 513.5,276.167 513.5,277.5C 471.167,277.5 428.833,277.5 386.5,277.5C 385.596,276.791 385.263,275.791 385.5,274.5C 427.997,273.501 470.663,273.168 513.5,273.5 Z"/></g>
<g><path style="opacity:1" fill="#738dc0" d="M 560.5,272.5 C 573.656,273.496 586.99,273.829 600.5,273.5C 601.488,274.795 602.488,276.128 603.5,277.5C 602.449,278.222 601.782,279.222 601.5,280.5C 587.167,280.5 572.833,280.5 558.5,280.5C 558.963,277.67 559.629,275.003 560.5,272.5 Z"/></g>
<g><path style="opacity:1" fill="#f7c8c6" d="M 607.5,276.5 C 612.657,276.294 617.657,276.961 622.5,278.5C 625.127,279.092 627.794,279.425 630.5,279.5C 632.102,281.074 634.102,281.741 636.5,281.5C 637.414,284.728 637.747,288.061 637.5,291.5C 629.861,292.525 622.195,292.691 614.5,292C 609.588,290.757 605.421,288.257 602,284.5C 601.51,283.207 601.343,281.873 601.5,280.5C 601.782,279.222 602.449,278.222 603.5,277.5C 604.708,276.766 606.041,276.433 607.5,276.5 Z"/></g>
<g><path style="opacity:1" fill="#5873a7" d="M 386.5,277.5 C 428.833,277.5 471.167,277.5 513.5,277.5C 514.338,277.842 514.672,278.508 514.5,279.5C 471.487,280.161 428.82,279.495 386.5,277.5 Z"/></g>
<g><path style="opacity:1" fill="#d9eafd" d="M 398.5,301.5 C 405.225,301.204 406.891,303.871 403.5,309.5C 397.038,310.02 395.372,307.353 398.5,301.5 Z"/></g>
<g><path style="opacity:1" fill="#5879a8" d="M 546.5,300.5 C 549.754,300.794 552.421,302.127 554.5,304.5C 554.258,307.681 554.258,310.681 554.5,313.5C 552.814,316.937 551.147,320.271 549.5,323.5C 547.9,321.297 546.567,318.964 545.5,316.5C 545.461,315.417 545.127,314.417 544.5,313.5C 546.027,311.807 547.36,309.973 548.5,308C 546.722,305.865 546.055,303.365 546.5,300.5 Z"/></g>
<g><path style="opacity:1" fill="#5879a9" d="M 524.5,301.5 C 525.88,301.962 526.547,302.962 526.5,304.5C 525.814,306.347 524.814,308.014 523.5,309.5C 524.651,311.325 525.318,313.325 525.5,315.5C 525.749,319.458 525.082,323.124 523.5,326.5C 519.647,323.31 516.981,319.31 515.5,314.5C 516.01,312.912 517.01,311.745 518.5,311C 517.552,310.517 516.552,310.351 515.5,310.5C 515.604,308.297 516.27,306.297 517.5,304.5C 519.713,303.227 522.046,302.227 524.5,301.5 Z"/></g>
<g><path style="opacity:1" fill="#8fb3e1" d="M 517.5,304.5 C 516.27,306.297 515.604,308.297 515.5,310.5C 516.552,310.351 517.552,310.517 518.5,311C 517.01,311.745 516.01,312.912 515.5,314.5C 516.981,319.31 519.647,323.31 523.5,326.5C 522.676,330.312 522.176,334.312 522,338.5C 521.638,365.669 521.138,392.836 520.5,420C 520.54,426.739 521.207,433.239 522.5,439.5C 517.53,440.373 512.863,439.373 508.5,436.5C 507.29,436.068 506.29,435.401 505.5,434.5C 506.484,403.497 506.484,372.497 505.5,341.5C 504.522,341.977 503.689,342.643 503,343.5C 502.819,346.695 502.319,349.695 501.5,352.5C 501.662,350.473 501.495,348.473 501,346.5C 496.163,354.844 490.83,362.844 485,370.5C 480.614,375.389 475.78,379.722 470.5,383.5C 455.036,372.073 440.703,359.24 427.5,345C 428.942,344.623 429.942,343.79 430.5,342.5C 433.682,340.807 435.348,338.141 435.5,334.5C 436.222,334.082 436.722,333.416 437,332.5C 446.888,341.522 457.054,350.189 467.5,358.5C 471.903,355.266 475.403,351.266 478,346.5C 484.377,334.71 490.377,322.71 496,310.5C 497.167,309.333 498.333,308.167 499.5,307C 505.432,305.622 511.432,304.789 517.5,304.5 Z"/></g>
<g><path style="opacity:1" fill="#8fb2e0" d="M 554.5,304.5 C 562.57,306.686 570.57,309.186 578.5,312C 586.631,324.423 594.131,337.256 601,350.5C 603.951,354.4 606.618,354.067 609,349.5C 614.723,342.109 620.056,334.443 625,326.5C 625.708,327.381 626.542,328.047 627.5,328.5C 628.706,332.365 631.373,334.365 635.5,334.5C 635.804,335.15 636.137,335.817 636.5,336.5C 628.257,350.397 619.257,363.731 609.5,376.5C 606.579,377.696 603.579,378.696 600.5,379.5C 589.703,369.192 580.536,357.526 573,344.5C 572.88,366.251 574.047,387.918 576.5,409.5C 572.745,418.852 570.078,428.519 568.5,438.5C 564.601,439.748 560.601,440.748 556.5,441.5C 555.261,441.058 554.261,440.391 553.5,439.5C 553.844,400.848 552.51,362.181 549.5,323.5C 551.147,320.271 552.814,316.937 554.5,313.5C 554.258,310.681 554.258,307.681 554.5,304.5 Z"/></g>
<g><path style="opacity:1" fill="#3367da" d="M 105.5,368.5 C 102.746,366.947 101.913,364.614 103,361.5C 107.473,351.083 112.139,340.749 117,330.5C 118.443,323.779 119.943,317.112 121.5,310.5C 122.914,308.946 124.581,307.612 126.5,306.5C 125.914,314.374 124.748,322.374 123,330.5C 118,342.833 113,355.167 108,367.5C 107.329,368.252 106.496,368.586 105.5,368.5 Z"/></g>
<g><path style="opacity:1" fill="#fefefe" d="M 525.5,315.5 C 531.615,323.173 538.281,323.506 545.5,316.5C 546.567,318.964 547.9,321.297 549.5,323.5C 552.51,362.181 553.844,400.848 553.5,439.5C 543.17,440.8 532.836,440.8 522.5,439.5C 521.207,433.239 520.54,426.739 520.5,420C 521.138,392.836 521.638,365.669 522,338.5C 522.176,334.312 522.676,330.312 523.5,326.5C 525.082,323.124 525.749,319.458 525.5,315.5 Z"/></g>
<g><path style="opacity:1" fill="#183c6f" d="M 760.5,318.5 C 755.607,345.016 750.607,371.516 745.5,398C 746.745,404.223 748.245,410.39 750,416.5C 750.079,438.873 750.912,461.207 752.5,483.5C 749.08,485.222 745.414,485.889 741.5,485.5C 736.421,464.44 732.088,443.107 728.5,421.5C 726.195,411.305 725.361,400.972 726,390.5C 729.182,371.093 732.682,351.759 736.5,332.5C 742.126,331.192 747.459,329.025 752.5,326C 754.041,324.629 755.375,323.129 756.5,321.5C 757.262,319.738 758.596,318.738 760.5,318.5 Z"/></g>
<g><path style="opacity:1" fill="#1c4681" d="M 756.5,321.5 C 755.375,323.129 754.041,324.629 752.5,326C 747.459,329.025 742.126,331.192 736.5,332.5C 732.682,351.759 729.182,371.093 726,390.5C 725.361,400.972 726.195,411.305 728.5,421.5C 727.853,422.274 727.52,423.274 727.5,424.5C 729.501,443.847 731.501,463.18 733.5,482.5C 732.209,482.263 731.209,482.596 730.5,483.5C 727.794,483.575 725.127,483.908 722.5,484.5C 718.889,455.495 715.056,426.495 711,397.5C 710.558,376.105 711.392,354.771 713.5,333.5C 728.524,331.936 742.857,327.936 756.5,321.5 Z"/></g>
<g><path style="opacity:1" fill="#f9c0bd" d="M 635.5,334.5 C 631.373,334.365 628.706,332.365 627.5,328.5C 628.134,325.357 629.8,322.857 632.5,321C 636.665,320.688 640.832,320.855 645,321.5C 652.164,320.445 659.331,319.445 666.5,318.5C 666.607,320.903 665.607,322.736 663.5,324C 656.146,328.505 648.146,330.505 639.5,330C 637.959,331.371 636.625,332.871 635.5,334.5 Z"/></g>
<g><path style="opacity:1" fill="#193c6f" d="M 702.5,329.5 C 704.297,330.73 706.297,331.396 708.5,331.5C 709.78,332.931 711.447,333.598 713.5,333.5C 711.392,354.771 710.558,376.105 711,397.5C 715.056,426.495 718.889,455.495 722.5,484.5C 721.167,484.5 719.833,484.5 718.5,484.5C 717.5,484.5 716.5,484.5 715.5,484.5C 711.435,455.445 706.935,426.445 702,397.5C 702.112,374.839 702.279,352.173 702.5,329.5 Z"/></g>
<g><path style="opacity:1" fill="#fac7c4" d="M 435.5,334.5 C 435.348,338.141 433.682,340.807 430.5,342.5C 429.711,342.217 429.044,341.717 428.5,341C 419.5,340.667 410.5,340.333 401.5,340C 397.58,339.218 394.58,337.218 392.5,334C 392.905,333.055 393.572,332.388 394.5,332C 404.36,332.141 414.026,330.975 423.5,328.5C 428.324,328.912 432.324,330.912 435.5,334.5 Z"/></g>
<g><path style="opacity:1" fill="#789ac9" d="M 505.5,434.5 C 502.802,434.155 500.802,432.822 499.5,430.5C 498.865,426.581 498.532,422.581 498.5,418.5C 500.595,396.553 501.595,374.553 501.5,352.5C 502.319,349.695 502.819,346.695 503,343.5C 503.689,342.643 504.522,341.977 505.5,341.5C 506.484,372.497 506.484,403.497 505.5,434.5 Z"/></g>
<g><path style="opacity:1" fill="#fdfdfe" d="M 600.5,379.5 C 589.932,387.406 581.932,397.406 576.5,409.5C 574.047,387.918 572.88,366.251 573,344.5C 580.536,357.526 589.703,369.192 600.5,379.5 Z"/></g>
<g><path style="opacity:1" fill="#c9c9db" d="M 484.5,402.5 C 465.164,402.333 445.83,402.5 426.5,403C 427.252,403.671 427.586,404.504 427.5,405.5C 400.093,405.824 372.759,405.491 345.5,404.5C 344.542,404.047 343.708,403.381 343,402.5C 336.149,387.657 329.316,372.824 322.5,358C 322.645,357.228 322.978,356.561 323.5,356C 350.5,355.333 377.5,355.333 404.5,356C 411.901,370.637 418.901,385.47 425.5,400.5C 445.329,401.167 464.996,401.833 484.5,402.5 Z"/></g>
<g><path style="opacity:1" fill="#2a3156" d="M 107.5,370.5 C 124.032,382.549 142.365,387.216 162.5,384.5C 175.784,402.29 189.284,419.957 203,437.5C 206.619,444.558 205.952,451.225 201,457.5C 185.749,481.666 170.749,505.999 156,530.5C 154.603,532.07 153.103,533.404 151.5,534.5C 144.378,536.054 137.378,535.72 130.5,533.5C 129.859,532.518 129.193,531.518 128.5,530.5C 142.167,503.167 155.833,475.833 169.5,448.5C 162.506,442.507 155.506,436.507 148.5,430.5C 137.192,420.863 125.858,411.196 114.5,401.5C 107.905,392.119 105.571,381.786 107.5,370.5 Z"/></g>
<g><path style="opacity:1" fill="#fad4d1" d="M 53.5,376.5 C 56.9237,380.377 61.257,382.377 66.5,382.5C 67.1929,386.744 68.1929,390.911 69.5,395C 69.673,399.495 68.173,400.329 65,397.5C 64.6397,395.579 63.8064,393.912 62.5,392.5C 59.8798,396.894 56.8798,401.06 53.5,405C 48.3273,409.303 43.1607,409.469 38,405.5C 37.3333,403.833 37.3333,402.167 38,400.5C 43.3899,392.617 48.5566,384.617 53.5,376.5 Z"/></g>
<g><path style="opacity:1" fill="#c8c8da" d="M 609.5,376.5 C 610.481,378.489 611.481,380.489 612.5,382.5C 606.903,412.746 601.737,443.079 597,473.5C 596.394,476.548 594.894,479.048 592.5,481C 588.267,482.48 584.267,483.98 580.5,485.5C 576.827,483.682 572.827,483.016 568.5,483.5C 551.5,483.5 534.5,483.5 517.5,483.5C 513.731,483.244 510.064,483.577 506.5,484.5C 504.052,483.527 501.385,483.194 498.5,483.5C 500.964,475.074 504.631,467.24 509.5,460C 528.002,455.042 546.668,450.708 565.5,447C 567.637,444.646 568.637,441.812 568.5,438.5C 570.078,428.519 572.745,418.852 576.5,409.5C 581.932,397.406 589.932,387.406 600.5,379.5C 603.579,378.696 606.579,377.696 609.5,376.5 Z"/></g>
<g><path style="opacity:1" fill="#1c2446" d="M 114.5,401.5 C 125.858,411.196 137.192,420.863 148.5,430.5C 144.308,445.269 139.808,459.935 135,474.5C 120.31,492.355 105.81,510.355 91.5,528.5C 90.3112,529.429 88.9778,529.762 87.5,529.5C 79.8354,529.668 73.8354,526.668 69.5,520.5C 68.5269,518.932 68.3603,517.265 69,515.5C 78.893,500.273 89.5597,485.607 101,471.5C 104.035,468.13 107.368,465.13 111,462.5C 112.388,442.176 113.555,421.842 114.5,401.5 Z"/></g>
<g><path style="opacity:1" fill="#aaaac6" d="M 484.5,402.5 C 485.404,403.209 485.737,404.209 485.5,405.5C 480.167,405.5 474.833,405.5 469.5,405.5C 455.5,405.5 441.5,405.5 427.5,405.5C 427.586,404.504 427.252,403.671 426.5,403C 445.83,402.5 465.164,402.333 484.5,402.5 Z"/></g>
<g><path style="opacity:1" fill="#edeef6" d="M 345.5,404.5 C 372.759,405.491 400.093,405.824 427.5,405.5C 441.5,405.5 455.5,405.5 469.5,405.5C 469.5,409.5 469.5,413.5 469.5,417.5C 443.833,417.5 418.167,417.5 392.5,417.5C 388.5,417.5 384.5,417.5 380.5,417.5C 352.338,416.502 324.005,416.169 295.5,416.5C 295.5,412.833 295.5,409.167 295.5,405.5C 312.342,405.83 329.008,405.497 345.5,404.5 Z"/></g>
<g><path style="opacity:1" fill="#c8c8da" d="M 380.5,417.5 C 384.5,417.5 388.5,417.5 392.5,417.5C 392.168,450.671 392.502,483.671 393.5,516.5C 389.538,526.076 385.204,535.409 380.5,544.5C 380.5,502.167 380.5,459.833 380.5,417.5 Z"/></g>
<g><path style="opacity:1" fill="#1f264a" d="M 499.5,430.5 C 500.802,432.822 502.802,434.155 505.5,434.5C 506.29,435.401 507.29,436.068 508.5,436.5C 507.969,438.624 506.635,440.124 504.5,441C 489.833,449.333 475.167,457.667 460.5,466C 457.642,467.694 455.309,469.861 453.5,472.5C 450.017,475.221 448.017,478.887 447.5,483.5C 441.106,495.953 434.439,508.287 427.5,520.5C 426.094,520.973 425.427,521.973 425.5,523.5C 418.685,531.763 411.852,540.096 405,548.5C 403.281,549.869 401.448,550.869 399.5,551.5C 393.697,551.791 388.03,551.125 382.5,549.5C 381.058,548.18 380.392,546.514 380.5,544.5C 385.204,535.409 389.538,526.076 393.5,516.5C 402.102,495.292 411.269,474.292 421,453.5C 422.167,452.333 423.333,451.167 424.5,450C 449.277,442.722 474.277,436.222 499.5,430.5 Z"/></g>
<g><path style="opacity:1" fill="#f6f7f9" d="M 728.5,421.5 C 732.088,443.107 736.421,464.44 741.5,485.5C 740.306,486.777 738.64,487.444 736.5,487.5C 734.833,487.333 733.167,487.167 731.5,487C 730.663,485.989 730.33,484.822 730.5,483.5C 731.209,482.596 732.209,482.263 733.5,482.5C 731.501,463.18 729.501,443.847 727.5,424.5C 727.52,423.274 727.853,422.274 728.5,421.5 Z"/></g>
<g><path style="opacity:1" fill="#2a315a" d="M 508.5,436.5 C 512.863,439.373 517.53,440.373 522.5,439.5C 532.836,440.8 543.17,440.8 553.5,439.5C 554.261,440.391 555.261,441.058 556.5,441.5C 560.601,440.748 564.601,439.748 568.5,438.5C 568.637,441.812 567.637,444.646 565.5,447C 546.668,450.708 528.002,455.042 509.5,460C 504.631,467.24 500.964,475.074 498.5,483.5C 494.709,485.049 490.876,486.716 487,488.5C 482.761,497.984 477.761,506.984 472,515.5C 462.667,524.833 453.333,534.167 444,543.5C 440.571,547.772 437.738,552.438 435.5,557.5C 433.978,558.562 432.312,559.229 430.5,559.5C 423.452,561.072 416.785,560.072 410.5,556.5C 410.082,555.778 409.416,555.278 408.5,555C 414.827,544.845 420.494,534.345 425.5,523.5C 426.906,523.027 427.573,522.027 427.5,520.5C 434.439,508.287 441.106,495.953 447.5,483.5C 450.258,480.322 452.258,476.655 453.5,472.5C 455.309,469.861 457.642,467.694 460.5,466C 475.167,457.667 489.833,449.333 504.5,441C 506.635,440.124 507.969,438.624 508.5,436.5 Z"/></g>
<g><path style="opacity:1" fill="#e2e3e8" d="M 453.5,472.5 C 452.258,476.655 450.258,480.322 447.5,483.5C 448.017,478.887 450.017,475.221 453.5,472.5 Z"/></g>
<g><path style="opacity:1" fill="#adadc4" d="M 517.5,483.5 C 510.134,509.962 502.301,536.296 494,562.5C 492.246,564.25 490.079,564.917 487.5,564.5C 493.519,537.756 499.853,511.089 506.5,484.5C 510.064,483.577 513.731,483.244 517.5,483.5 Z"/></g>
<g><path style="opacity:1" fill="#adadc4" d="M 568.5,483.5 C 572.827,483.016 576.827,483.682 580.5,485.5C 586.603,511.743 592.936,537.91 599.5,564C 597.19,564.497 594.857,564.663 592.5,564.5C 585.274,537.263 577.274,510.263 568.5,483.5 Z"/></g>
<g><path style="opacity:1" fill="#f1c5c3" d="M 730.5,483.5 C 730.33,484.822 730.663,485.989 731.5,487C 733.167,487.167 734.833,487.333 736.5,487.5C 738.64,487.444 740.306,486.777 741.5,485.5C 745.414,485.889 749.08,485.222 752.5,483.5C 752.5,484.833 752.5,486.167 752.5,487.5C 746.307,492.489 739.307,493.822 731.5,491.5C 731.762,492.978 731.429,494.311 730.5,495.5C 722.179,500.389 713.179,502.389 703.5,501.5C 703.36,499.876 704.027,498.71 705.5,498C 704.207,497.51 702.873,497.343 701.5,497.5C 706.838,496.919 712.171,495.752 717.5,494C 718.451,490.943 718.784,487.777 718.5,484.5C 719.833,484.5 721.167,484.5 722.5,484.5C 725.127,483.908 727.794,483.575 730.5,483.5 Z"/></g>
<g><path style="opacity:1" fill="#172e53" d="M 752.5,487.5 C 754.342,491.159 755.342,495.159 755.5,499.5C 752.797,499.955 750.13,500.622 747.5,501.5C 743.282,499.375 738.782,498.041 734,497.5C 733.5,497.667 733,497.833 732.5,498C 734.402,503.029 732.735,506.196 727.5,507.5C 717.454,506.972 707.454,506.139 697.5,505C 694.439,503.627 692.606,501.46 692,498.5C 695.057,497.549 698.223,497.216 701.5,497.5C 702.873,497.343 704.207,497.51 705.5,498C 704.027,498.71 703.36,499.876 703.5,501.5C 713.179,502.389 722.179,500.389 730.5,495.5C 731.429,494.311 731.762,492.978 731.5,491.5C 739.307,493.822 746.307,492.489 752.5,487.5 Z"/></g>
<g><path style="opacity:1" fill="#414551" d="M 69.5,520.5 C 73.8354,526.668 79.8354,529.668 87.5,529.5C 87.3312,537.821 89.4979,545.487 94,552.5C 97.0595,554.058 99.2262,556.391 100.5,559.5C 99.7598,561.894 98.0932,563.394 95.5,564C 88.9093,565.357 83.076,563.857 78,559.5C 74.4186,554.672 71.0852,549.672 68,544.5C 67.502,541.518 67.3354,538.518 67.5,535.5C 64.1971,534.958 62.1971,532.958 61.5,529.5C 63.4445,525.887 66.1112,522.887 69.5,520.5 Z"/></g>
<g><path style="opacity:1" fill="#b5b7c5" d="M 427.5,520.5 C 427.573,522.027 426.906,523.027 425.5,523.5C 425.427,521.973 426.094,520.973 427.5,520.5 Z"/></g>
<g><path style="opacity:1" fill="#424652" d="M 130.5,533.5 C 137.378,535.72 144.378,536.054 151.5,534.5C 151.841,537.516 153.007,540.182 155,542.5C 160.348,547.681 165.515,553.015 170.5,558.5C 169.346,563.324 166.346,565.991 161.5,566.5C 153.838,564.171 146.505,561.004 139.5,557C 136.786,554.57 135.119,551.57 134.5,548C 128.575,547.992 126.075,545.158 127,539.5C 127.941,537.273 129.108,535.273 130.5,533.5 Z"/></g>
<g><path style="opacity:1" fill="#050506" d="M 382.5,549.5 C 388.03,551.125 393.697,551.791 399.5,551.5C 398.406,553.359 397.573,555.359 397,557.5C 396.697,561.894 396.03,566.227 395,570.5C 394.167,571.333 393.333,572.167 392.5,573C 374.17,573.5 355.836,573.667 337.5,573.5C 337.974,569.719 339.641,566.552 342.5,564C 354.388,560.622 366.388,557.622 378.5,555C 379.665,553.008 380.998,551.175 382.5,549.5 Z"/></g>
<g><path style="opacity:1" fill="#c5eb9a" d="M 729.5,554.5 C 733.184,555.372 734.184,557.539 732.5,561C 727.148,561.175 726.148,559.009 729.5,554.5 Z"/></g>
<g><path style="opacity:1" fill="#040404" d="M 410.5,556.5 C 416.785,560.072 423.452,561.072 430.5,559.5C 429.945,564.675 427.945,569.175 424.5,573C 416.881,578.284 409.548,583.951 402.5,590C 396.812,592.626 391.146,592.793 385.5,590.5C 384.276,588.102 384.442,585.769 386,583.5C 393.663,574.006 401.83,565.006 410.5,556.5 Z"/></g>
<g><path style="opacity:1" fill="#696969" d="M 41.5,596.5 C 38.5,596.5 35.5,596.5 32.5,596.5C 32.822,594.278 32.1554,592.444 30.5,591C 27.9589,590.619 25.6255,589.786 23.5,588.5C 21.3745,589.786 19.0411,590.619 16.5,591C 14.8446,592.444 14.178,594.278 14.5,596.5C 11.5,596.5 8.5,596.5 5.5,596.5C 6.89175,586.275 12.7251,580.608 23,579.5C 33.8223,580.157 39.989,585.824 41.5,596.5 Z"/></g>
<g><path style="opacity:1" fill="#f8f8f8" d="M 32.5,596.5 C 31.8333,596.5 31.1667,596.5 30.5,596.5C 30.67,595.178 30.3366,594.011 29.5,593C 25.5,592.333 21.5,592.333 17.5,593C 16.6634,594.011 16.33,595.178 16.5,596.5C 15.8333,596.5 15.1667,596.5 14.5,596.5C 14.178,594.278 14.8446,592.444 16.5,591C 19.0411,590.619 21.3745,589.786 23.5,588.5C 25.6255,589.786 27.9589,590.619 30.5,591C 32.1554,592.444 32.822,594.278 32.5,596.5 Z"/></g>
<g><path style="opacity:1" fill="#6e6e6e" d="M 30.5,596.5 C 25.8333,596.5 21.1667,596.5 16.5,596.5C 16.33,595.178 16.6634,594.011 17.5,593C 21.5,592.333 25.5,592.333 29.5,593C 30.3366,594.011 30.67,595.178 30.5,596.5 Z"/></g>
</svg>
